<?xml version="1.0" encoding="utf-8"?>
<!-- Generator: Adobe Illustrator 23.0.1, SVG Export Plug-In . SVG Version: 6.00 Build 0)  -->
<svg version="1.1" id="Layer_1" xmlns="http://www.w3.org/2000/svg" xmlns:xlink="http://www.w3.org/1999/xlink" x="0px" y="0px"
	 viewBox="0 0 489.4 60" style="enable-background:new 0 0 489.4 60;" xml:space="preserve">
<style type="text/css">
	.st0{fill:#00FFFF;}
	.st1{fill:#FF00FF;}
</style>
<g>
	<path class="st0" d="M16.9,45.5c1.8,0,3.3-0.3,4.6-0.9c1.3-0.6,2.3-1.3,3.2-2.3s1.5-2,2-3.2c0.5-1.2,0.9-2.5,1.2-3.7l0.3-1.3h9.5
		l-0.3,1.3c-0.7,3.1-1.6,5.8-2.7,8.2c-1.2,2.3-2.6,4.3-4.4,5.8s-3.9,2.7-6.3,3.5s-5.3,1.2-8.6,1.2c-2.3,0-4.3-0.3-6.2-1
		c-1.9-0.7-3.5-1.7-4.8-3c-1.3-1.3-2.4-2.9-3.1-4.7c-0.7-1.9-1.1-4-1.1-6.4c0-0.9,0.1-1.7,0.1-2.6c0.1-0.9,0.3-1.8,0.5-3L3,22.4
		c1.5-7,4.1-12.1,7.9-15.5c3.8-3.4,8.7-5.1,14.8-5.1c2.4,0,4.5,0.4,6.5,1.2c1.9,0.8,3.5,1.8,4.8,3.1c1.3,1.3,2.3,2.9,3,4.6
		c0.7,1.8,1,3.7,1,5.7c0,0.7,0,1.4-0.1,2c-0.1,0.7-0.2,1.4-0.4,2.1l-0.3,1.3h-9.5l0.3-1.3c0.3-1.1,0.4-2.3,0.4-3.3
		c0-1.9-0.5-3.5-1.6-4.8s-3-2-5.7-2c-1.6,0-3,0.3-4.3,0.9c-1.3,0.6-2.4,1.4-3.4,2.4s-1.8,2.2-2.4,3.6c-0.6,1.4-1.1,2.8-1.5,4.3
		L10,34.3c-0.1,0.7-0.3,1.4-0.4,2.1c-0.1,0.7-0.1,1.4-0.1,2c0,2.2,0.6,3.9,1.7,5.2C12.3,44.9,14.2,45.5,16.9,45.5z"/>
	<path class="st0" d="M82.8,30.9c0,3.4-0.5,6.5-1.4,9.3c-1,2.9-2.4,5.3-4.2,7.4s-4.2,3.7-7,4.9c-2.8,1.2-6.1,1.8-9.8,1.8
		c-2.1,0-4.1-0.3-6-0.9c-1.8-0.6-3.5-1.5-4.9-2.8c-1.4-1.2-2.5-2.7-3.3-4.5c-0.8-1.8-1.2-3.8-1.2-6c0-3.7,0.6-7,1.7-9.9
		c1.2-2.9,2.7-5.4,4.7-7.4s4.3-3.5,7.1-4.6c2.7-1.1,5.6-1.6,8.8-1.6c2.3,0,4.3,0.4,6.3,1c1.9,0.7,3.6,1.7,4.9,2.9s2.4,2.8,3.2,4.5
		C82.4,26.7,82.8,28.7,82.8,30.9z M61.7,45.7c1.7,0,3.3-0.4,4.8-1.2c1.5-0.7,2.7-1.7,3.8-2.8c1-1.2,1.8-2.6,2.4-4.1
		c0.6-1.6,0.9-3.3,0.9-5c0-2.5-0.7-4.4-2-5.7c-1.3-1.3-3.2-1.9-5.4-1.9c-1.7,0-3.3,0.4-4.8,1.1c-1.4,0.8-2.7,1.7-3.8,3
		c-1.1,1.2-1.9,2.6-2.5,4.2s-0.9,3.2-0.9,5c0,2.5,0.7,4.3,2,5.6C57.6,45.1,59.4,45.7,61.7,45.7z"/>
	<path class="st0" d="M114,32.4c0.2-0.9,0.3-1.7,0.3-2.3c0-1.7-0.5-3.1-1.5-4c-1-1-2.4-1.4-4.1-1.4c-2.2,0-4,0.8-5.6,2.3
		c-1.5,1.5-2.6,3.6-3.1,6.2l-4.2,20h-9.1l7.6-35.8h8.7l-1.2,5.8h1.3c1.2-2.4,2.7-4.1,4.6-5.2s4-1.6,6.3-1.6c3,0,5.4,0.9,7.2,2.7
		c1.8,1.8,2.7,4.4,2.7,7.7c0,0.8-0.1,1.5-0.1,2.1c-0.1,0.6-0.2,1.4-0.4,2.1l-2.9,13.5l0.7,0.5l3.1-2.2l4.5,6.8l-3.9,2.6
		c-1.8,1.2-3.8,1.9-5.8,1.9c-1.1,0-2.1-0.2-3-0.5s-1.8-0.9-2.5-1.5c-0.7-0.7-1.3-1.4-1.7-2.4c-0.4-0.9-0.7-2-0.7-3.2
		c0-0.6,0.1-1.3,0.2-2.2L114,32.4z"/>
	<path class="st0" d="M143.6,26l-0.7-0.4l-5.7,4.2l-4.8-6.5l5.8-4.3c1.1-0.8,2.3-1.4,3.5-1.8s2.4-0.6,3.5-0.6c1.9,0,3.6,0.5,5.1,1.6
		c1.4,1.1,2.3,2.5,2.6,4.5h1.3c1-2,2.3-3.5,4-4.5s3.7-1.5,5.8-1.5c2.7,0,5,0.9,6.7,2.6c1.7,1.7,2.6,4.1,2.6,7.1c0,0.6,0,1.2-0.1,1.8
		s-0.2,1.3-0.4,2.2l-0.4,1.6l-9.7,0.7l0.2-1c0.1-0.7,0.2-1.4,0.2-2c0-1.4-0.4-2.5-1.1-3.3c-0.8-0.8-1.9-1.2-3.5-1.2
		c-1.9,0-3.4,0.6-4.6,2c-1.1,1.3-2,3.1-2.5,5.6l-2.6,12.1h8.6v8.6h-24.6v-8.7h6.9L143.6,26z"/>
	<path class="st0" d="M209.4,44.6l0.7,0.5l3.5-2.5l4.5,6.8l-4.2,2.9c-1.9,1.2-3.8,1.9-5.9,1.9c-1.8,0-3.5-0.5-4.9-1.5
		s-2.4-2.4-2.7-4.2H199c-0.4,0.8-0.9,1.6-1.5,2.3c-0.6,0.7-1.3,1.3-2.1,1.8c-0.8,0.5-1.8,0.9-2.9,1.2c-1.1,0.3-2.5,0.5-4,0.5
		c-1.9,0-3.6-0.4-5.2-1.1c-1.6-0.7-3-1.8-4.1-3.1c-1.2-1.3-2.1-2.9-2.8-4.7c-0.7-1.8-1-3.7-1-5.8c0-3.2,0.4-6.2,1.3-9
		c0.9-2.8,2.1-5.2,3.8-7.3c1.6-2.1,3.6-3.7,6-4.9s5.1-1.8,8-1.8c2.6,0,4.7,0.5,6.3,1.6c1.5,1.1,2.6,2.5,3.1,4.2h1.3l1-4.8h9.1
		L209.4,44.6z M192,45.5c1.7,0,3.3-0.3,4.6-1c1.3-0.7,2.5-1.6,3.4-2.8s1.6-2.5,2.1-4.1s0.7-3.2,0.7-4.9c0-2.3-0.6-4.1-1.9-5.5
		s-3-2.1-5.2-2.1c-1.7,0-3.3,0.4-4.6,1c-1.4,0.7-2.5,1.6-3.4,2.8c-0.9,1.1-1.6,2.5-2.1,4.1s-0.7,3.2-0.7,4.9c0,2,0.6,3.8,1.8,5.3
		C187.7,44.8,189.5,45.5,192,45.5z"/>
	<path class="st0" d="M253.5,44.6l0.7,0.5l3.9-2.7l4.5,6.8l-4.7,3.2c-1,0.7-2,1.2-3,1.5c-1,0.3-2,0.4-2.9,0.4
		c-1.8,0-3.5-0.5-4.9-1.5c-1.4-1-2.4-2.4-2.7-4.2h-1.3c-0.4,0.8-0.9,1.6-1.5,2.3c-0.6,0.7-1.3,1.3-2.1,1.8c-0.8,0.5-1.8,0.9-2.9,1.2
		c-1.1,0.3-2.5,0.5-4,0.5c-1.9,0-3.6-0.4-5.2-1.1c-1.6-0.7-3-1.8-4.1-3.1c-1.2-1.3-2.1-2.9-2.8-4.7c-0.7-1.8-1-3.7-1-5.8
		c0-3.2,0.4-6.2,1.3-9c0.9-2.8,2.1-5.2,3.8-7.3c1.6-2.1,3.6-3.7,6-4.9s5.1-1.8,8-1.8c2.6,0,4.6,0.6,6.2,1.7s2.6,2.6,3.1,4.5h1.3
		l4.4-20.9h9.1l-4.5,20.9L253.5,44.6z M236.1,45.5c1.7,0,3.3-0.3,4.6-1c1.3-0.7,2.5-1.6,3.4-2.8s1.6-2.5,2.1-4.1s0.7-3.2,0.7-4.9
		c0-2.3-0.6-4.1-1.9-5.5s-3-2.1-5.2-2.1c-1.7,0-3.3,0.4-4.6,1c-1.4,0.7-2.5,1.6-3.4,2.8c-0.9,1.1-1.6,2.5-2.1,4.1s-0.7,3.2-0.7,4.9
		c0,2,0.6,3.8,1.8,5.3C231.8,44.8,233.6,45.5,236.1,45.5z"/>
	<path class="st0" d="M314.6,2.7h19.1c4.9,0,8.7,1.2,11.4,3.7c2.7,2.5,4,5.8,4,9.8c0,0.7,0,1.4-0.1,2.1c-0.1,0.7-0.2,1.5-0.4,2.2
		l-3.2,15.1c-0.7,3.1-1.6,5.7-2.7,7.9c-1.1,2.2-2.6,4-4.4,5.4s-3.9,2.5-6.4,3.1c-2.5,0.7-5.3,1-8.6,1h-15.9v-9.1h5.2l6.9-32.3h-4.8
		L314.6,2.7L314.6,2.7z M325.2,44.1c3.3,0,5.8-0.8,7.5-2.3s2.8-4,3.5-7.3l3-13.8c0.1-0.4,0.2-0.8,0.2-1.3s0.1-1,0.1-1.4
		c0-2-0.6-3.5-1.8-4.5c-1.2-1-3.1-1.6-5.6-1.6h-3.2l-6.9,32.3L325.2,44.1L325.2,44.1z"/>
	<path class="st0" d="M378.7,52.3c-1,0.7-2,1.2-3,1.4c-1,0.3-2,0.4-3,0.4c-1.1,0-2.1-0.2-3-0.5s-1.8-0.9-2.5-1.5
		c-0.7-0.7-1.3-1.4-1.7-2.4c-0.4-0.9-0.6-2-0.6-3.1c0-0.9,0.1-1.8,0.3-2.5l4.3-18.1l-0.7-0.5l-9.7,6.6l-4.5-6.8l10.5-7.1
		c1-0.7,2-1.1,3-1.4c1-0.3,2-0.4,3-0.4c1.1,0,2.1,0.2,3,0.5s1.8,0.9,2.5,1.5c0.7,0.6,1.3,1.4,1.7,2.4c0.4,0.9,0.6,2,0.6,3.1
		c0,0.9-0.1,1.8-0.3,2.5l-4.3,18.1l0.7,0.5l9.7-6.6l4.5,6.8L378.7,52.3z M385,6.8c0,1-0.2,1.9-0.5,2.7c-0.4,0.8-0.9,1.6-1.5,2.2
		c-0.6,0.6-1.4,1.1-2.2,1.4c-0.8,0.4-1.7,0.5-2.6,0.5c-1,0-1.9-0.2-2.7-0.5s-1.5-0.8-2.2-1.4c-0.6-0.6-1.1-1.3-1.5-2.2
		c-0.4-0.8-0.5-1.7-0.5-2.7s0.2-1.9,0.5-2.7c0.4-0.8,0.9-1.6,1.5-2.2c0.6-0.6,1.3-1.1,2.2-1.4s1.7-0.5,2.7-0.5
		c0.9,0,1.8,0.2,2.6,0.5s1.6,0.8,2.2,1.4c0.6,0.6,1.1,1.3,1.5,2.2S385,5.9,385,6.8z"/>
	<path class="st0" d="M430,44.6l0.7,0.5l3.5-2.5l4.5,6.8l-4.2,2.9c-1.9,1.2-3.8,1.9-5.9,1.9c-1.8,0-3.5-0.5-4.9-1.5
		s-2.4-2.4-2.7-4.2h-1.3c-0.4,0.8-0.9,1.6-1.5,2.3c-0.6,0.7-1.3,1.3-2.1,1.8s-1.8,0.9-3,1.2c-1.1,0.3-2.5,0.5-4,0.5
		c-1.9,0-3.6-0.4-5.2-1.1c-1.6-0.7-3-1.8-4.1-3.1c-1.2-1.3-2.1-2.9-2.8-4.7c-0.7-1.8-1-3.7-1-5.8c0-3.2,0.4-6.2,1.3-9
		c0.9-2.8,2.1-5.2,3.8-7.3c1.6-2.1,3.6-3.7,6-4.9c2.4-1.2,5.1-1.8,8-1.8c2.6,0,4.7,0.5,6.3,1.6c1.5,1.1,2.6,2.5,3.1,4.2h1.3l1-4.8
		h9.1L430,44.6z M412.5,45.5c1.7,0,3.3-0.3,4.6-1c1.4-0.7,2.5-1.6,3.4-2.8s1.6-2.5,2-4.1c0.5-1.6,0.7-3.2,0.7-4.9
		c0-2.3-0.6-4.1-2-5.5c-1.3-1.4-3-2.1-5.2-2.1c-1.7,0-3.3,0.4-4.6,1c-1.4,0.7-2.5,1.6-3.4,2.8c-0.9,1.1-1.6,2.5-2.1,4.1
		s-0.7,3.2-0.7,4.9c0,2,0.6,3.8,1.8,5.3C408.3,44.8,410.1,45.5,412.5,45.5z"/>
	<path class="st0" d="M479.8,30.9c0,3.4-0.5,6.5-1.4,9.3c-1,2.9-2.4,5.3-4.2,7.4s-4.2,3.7-7,4.9c-2.8,1.2-6.1,1.8-9.8,1.8
		c-2.1,0-4.1-0.3-6-0.9c-1.9-0.6-3.5-1.5-4.9-2.8c-1.4-1.2-2.5-2.7-3.3-4.5c-0.8-1.8-1.2-3.8-1.2-6c0-3.7,0.6-7,1.7-9.9
		c1.1-2.9,2.7-5.4,4.7-7.4s4.4-3.5,7.1-4.6c2.7-1.1,5.6-1.6,8.8-1.6c2.3,0,4.4,0.4,6.3,1c1.9,0.7,3.6,1.7,4.9,2.9s2.4,2.8,3.2,4.5
		C479.4,26.7,479.8,28.7,479.8,30.9z M458.6,45.7c1.7,0,3.3-0.4,4.8-1.2s2.7-1.7,3.8-2.8c1-1.2,1.8-2.6,2.4-4.1
		c0.6-1.6,0.9-3.3,0.9-5c0-2.5-0.7-4.4-2-5.7c-1.4-1.3-3.1-1.9-5.4-1.9c-1.7,0-3.3,0.4-4.8,1.1s-2.7,1.7-3.8,3
		c-1.1,1.2-1.9,2.6-2.5,4.2c-0.6,1.6-0.9,3.2-0.9,5c0,2.5,0.7,4.3,2,5.6C454.6,45.1,456.4,45.7,458.6,45.7z"/>
</g>
<g>
	<path class="st1" d="M20.5,48.3c1.8,0,3.3-0.3,4.6-0.9c1.3-0.6,2.3-1.3,3.2-2.3c0.9-0.9,1.5-2,2-3.2c0.5-1.2,0.9-2.5,1.2-3.7
		l0.3-1.3h9.5l-0.3,1.3c-0.7,3.1-1.6,5.8-2.7,8.2s-2.6,4.3-4.4,5.8c-1.8,1.6-3.9,2.7-6.3,3.5C25.1,56.6,22.3,57,19,57
		c-2.3,0-4.3-0.3-6.2-1c-1.9-0.7-3.5-1.7-4.8-3s-2.4-2.9-3.1-4.7c-0.8-1.8-1.1-4-1.1-6.4c0-0.9,0.1-1.7,0.1-2.6
		c0.1-0.9,0.3-1.8,0.5-3l2.4-11.2c1.5-7,4.1-12.1,7.9-15.5c3.8-3.4,8.7-5.1,14.9-5.1c2.4,0,4.5,0.4,6.5,1.1c1.9,0.8,3.5,1.8,4.8,3.1
		s2.3,2.9,3,4.6c0.7,1.8,1,3.7,1,5.7c0,0.7,0,1.4-0.1,2c-0.1,0.7-0.2,1.4-0.4,2.1L44,24.6h-9.5l0.3-1.3c0.3-1.1,0.4-2.3,0.4-3.3
		c0-1.9-0.5-3.5-1.6-4.8c-1.1-1.3-3-2-5.7-2c-1.6,0-3,0.3-4.3,0.9c-1.3,0.6-2.4,1.4-3.4,2.5s-1.8,2.2-2.4,3.6
		c-0.6,1.4-1.1,2.8-1.5,4.3l-2.7,12.7c-0.1,0.7-0.3,1.4-0.4,2.1s-0.1,1.4-0.1,2c0,2.2,0.6,3.9,1.7,5.2C16,47.7,17.9,48.3,20.5,48.3z
		"/>
	<path class="st1" d="M86.5,33.7c0,3.4-0.5,6.5-1.4,9.3c-1,2.9-2.4,5.3-4.2,7.4s-4.2,3.7-7,4.9C70.9,56.4,67.7,57,64,57
		c-2.1,0-4.1-0.3-5.9-0.9c-1.8-0.6-3.5-1.5-4.9-2.8c-1.4-1.2-2.5-2.7-3.3-4.5c-0.8-1.8-1.2-3.8-1.2-6c0-3.7,0.6-7,1.7-9.9
		c1.2-2.9,2.7-5.4,4.7-7.4s4.4-3.5,7.1-4.6c2.7-1.1,5.6-1.6,8.8-1.6c2.3,0,4.3,0.4,6.3,1c1.9,0.7,3.6,1.7,4.9,2.9s2.4,2.8,3.2,4.5
		C86.1,29.5,86.5,31.5,86.5,33.7z M65.4,48.5c1.7,0,3.3-0.4,4.8-1.2c1.5-0.7,2.7-1.7,3.8-2.8c1-1.2,1.8-2.6,2.4-4.1
		c0.6-1.6,0.9-3.3,0.9-5c0-2.5-0.7-4.4-2-5.7c-1.3-1.3-3.2-1.9-5.4-1.9c-1.7,0-3.3,0.4-4.8,1.1c-1.4,0.7-2.7,1.7-3.8,2.9
		c-1.1,1.2-1.9,2.6-2.4,4.2s-0.9,3.2-0.9,5c0,2.5,0.7,4.3,2,5.6C61.3,47.9,63.1,48.5,65.4,48.5z"/>
	<path class="st1" d="M117.7,35.2c0.2-0.9,0.3-1.7,0.3-2.3c0-1.7-0.5-3.1-1.5-4c-1-1-2.4-1.4-4.1-1.4c-2.2,0-4,0.8-5.6,2.3
		c-1.5,1.5-2.6,3.6-3.1,6.2l-4.2,20h-9.1l7.6-35.8h8.7l-1.2,5.8h1.3c1.2-2.4,2.7-4.1,4.6-5.2s4-1.6,6.3-1.6c3,0,5.4,0.9,7.2,2.7
		s2.7,4.4,2.7,7.7c0,0.8-0.1,1.5-0.1,2.1s-0.2,1.4-0.4,2.1l-2.9,13.5l0.7,0.5l3.1-2.2l4.5,6.8l-3.9,2.6c-1.8,1.2-3.8,1.9-5.8,1.9
		c-1.1,0-2.1-0.2-3-0.5s-1.8-0.9-2.5-1.5c-0.7-0.7-1.3-1.4-1.7-2.4c-0.4-0.9-0.7-2-0.7-3.2c0-0.6,0.1-1.3,0.2-2.2L117.7,35.2z"/>
	<path class="st1" d="M147.3,28.8l-0.7-0.4l-5.7,4.2l-4.8-6.5l5.8-4.3c1.1-0.8,2.3-1.4,3.5-1.8s2.4-0.6,3.5-0.6
		c1.9,0,3.6,0.5,5.1,1.6c1.4,1.1,2.3,2.5,2.6,4.5h1.3c1-2,2.3-3.5,4-4.5s3.7-1.5,5.8-1.5c2.7,0,5,0.9,6.7,2.6
		c1.7,1.7,2.6,4.1,2.6,7.1c0,0.6,0,1.2-0.1,1.8s-0.2,1.3-0.4,2.2l-0.4,1.6l-9.7,0.7l0.2-1c0.1-0.7,0.2-1.4,0.2-2
		c0-1.4-0.4-2.5-1.1-3.3c-0.8-0.8-1.9-1.2-3.5-1.2c-1.9,0-3.4,0.6-4.6,2c-1.1,1.3-2,3.2-2.5,5.5l-2.6,12.1h8.6V56h-24.7v-8.7h6.9
		L147.3,28.8z"/>
	<path class="st1" d="M213.1,47.4l0.7,0.5l3.5-2.5l4.5,6.8l-4.2,2.9c-1.9,1.2-3.8,1.9-5.9,1.9c-1.8,0-3.5-0.5-4.9-1.5
		c-1.4-1-2.4-2.4-2.7-4.2h-1.3c-0.4,0.8-0.9,1.6-1.5,2.3c-0.6,0.7-1.3,1.3-2.1,1.8c-0.8,0.5-1.8,0.9-2.9,1.2c-1.1,0.3-2.5,0.5-4,0.5
		c-1.9,0-3.6-0.4-5.2-1.1c-1.6-0.7-3-1.8-4.1-3.1c-1.2-1.3-2.1-2.9-2.8-4.7c-0.7-1.8-1-3.7-1-5.8c0-3.2,0.4-6.2,1.3-9
		c0.9-2.8,2.1-5.2,3.8-7.3c1.6-2.1,3.6-3.7,6-4.9s5.1-1.8,8-1.8c2.6,0,4.7,0.5,6.3,1.6c1.5,1.1,2.6,2.5,3.1,4.2h1.3l1-4.8h9.1
		L213.1,47.4z M195.7,48.3c1.7,0,3.3-0.3,4.6-1c1.3-0.7,2.5-1.6,3.4-2.8s1.6-2.5,2.1-4.1s0.7-3.2,0.7-4.9c0-2.3-0.6-4.1-1.9-5.5
		c-1.3-1.4-3-2.1-5.2-2.1c-1.7,0-3.3,0.4-4.6,1c-1.4,0.7-2.5,1.6-3.4,2.8c-0.9,1.2-1.6,2.5-2.1,4.1s-0.7,3.2-0.7,4.9
		c0,2,0.6,3.8,1.8,5.3C191.4,47.6,193.2,48.3,195.7,48.3z"/>
	<path class="st1" d="M257.2,47.4l0.7,0.5l3.9-2.7l4.5,6.8l-4.7,3.2c-1,0.7-2,1.2-3,1.4c-1,0.3-2,0.4-2.9,0.4
		c-1.8,0-3.5-0.5-4.9-1.5s-2.4-2.4-2.7-4.2h-1.3c-0.4,0.8-0.9,1.6-1.5,2.3c-0.6,0.7-1.3,1.3-2.1,1.8c-0.8,0.5-1.8,0.9-2.9,1.2
		c-1.1,0.3-2.5,0.5-4,0.5c-1.9,0-3.6-0.4-5.2-1.1c-1.6-0.7-3-1.8-4.1-3.1c-1.2-1.3-2.1-2.9-2.8-4.7c-0.7-1.8-1-3.7-1-5.8
		c0-3.2,0.4-6.2,1.3-9c0.9-2.8,2.1-5.2,3.8-7.3c1.6-2.1,3.6-3.7,6-4.9s5.1-1.8,8-1.8c2.6,0,4.6,0.6,6.2,1.7c1.6,1.1,2.6,2.6,3.1,4.5
		h1.3l4.4-20.9h9.1l-4.5,20.9L257.2,47.4z M239.8,48.3c1.7,0,3.3-0.3,4.6-1c1.3-0.7,2.5-1.6,3.4-2.8s1.6-2.5,2.1-4.1
		s0.7-3.2,0.7-4.9c0-2.3-0.6-4.1-1.9-5.5c-1.3-1.4-3-2.1-5.2-2.1c-1.7,0-3.3,0.4-4.6,1c-1.4,0.7-2.5,1.6-3.4,2.8
		c-0.9,1.2-1.6,2.5-2.1,4.1s-0.7,3.2-0.7,4.9c0,2,0.6,3.8,1.8,5.3C235.5,47.6,237.3,48.3,239.8,48.3z"/>
	<path class="st1" d="M318.3,5.5h19.1c4.9,0,8.7,1.2,11.4,3.7c2.7,2.5,4,5.8,4,9.8c0,0.7,0,1.4-0.1,2.1c-0.1,0.7-0.2,1.5-0.4,2.2
		l-3.2,15.1c-0.7,3.1-1.6,5.7-2.7,7.9c-1.1,2.2-2.6,4-4.4,5.4s-3.9,2.5-6.4,3.1c-2.5,0.7-5.3,1-8.6,1h-15.9v-9.1h5.2l6.9-32.3h-4.8
		L318.3,5.5L318.3,5.5z M328.9,46.9c3.3,0,5.8-0.8,7.5-2.3s2.8-4,3.5-7.3l3-13.8c0.1-0.4,0.2-0.8,0.2-1.3s0.1-1,0.1-1.4
		c0-2-0.6-3.5-1.8-4.5c-1.2-1-3.1-1.5-5.6-1.5h-3.2l-6.9,32.3L328.9,46.9L328.9,46.9z"/>
	<path class="st1" d="M382.4,55.1c-1,0.7-2,1.2-3,1.4c-1,0.3-2,0.4-3,0.4c-1.1,0-2.1-0.2-3-0.5s-1.8-0.9-2.5-1.5
		c-0.7-0.7-1.3-1.4-1.7-2.4c-0.4-0.9-0.6-2-0.6-3.1c0-0.9,0.1-1.8,0.3-2.5l4.3-18.1l-0.7-0.5l-9.7,6.6l-4.5-6.8l10.5-7.1
		c1-0.7,2-1.1,3-1.4s2-0.4,3-0.4c1.1,0,2.1,0.2,3,0.5c1,0.4,1.8,0.9,2.5,1.5c0.7,0.6,1.3,1.4,1.7,2.4c0.4,0.9,0.6,2,0.6,3.1
		c0,0.9-0.1,1.8-0.3,2.5l-4.3,18.1l0.7,0.5l9.7-6.6l4.5,6.8L382.4,55.1z M388.7,9.6c0,1-0.2,1.9-0.5,2.7c-0.4,0.8-0.9,1.6-1.5,2.2
		s-1.4,1.1-2.2,1.4c-0.8,0.4-1.7,0.5-2.6,0.5c-1,0-1.9-0.2-2.7-0.5s-1.5-0.8-2.2-1.4c-0.6-0.6-1.1-1.3-1.5-2.2
		c-0.4-0.8-0.5-1.7-0.5-2.7s0.2-1.9,0.5-2.7c0.4-0.8,0.9-1.6,1.5-2.2c0.6-0.6,1.3-1.1,2.2-1.4s1.7-0.5,2.7-0.5
		c0.9,0,1.8,0.2,2.6,0.5s1.6,0.8,2.2,1.4c0.6,0.6,1.1,1.3,1.5,2.2C388.5,7.8,388.7,8.7,388.7,9.6z"/>
	<path class="st1" d="M433.6,47.4l0.7,0.5l3.5-2.5l4.5,6.8l-4.2,2.9c-1.9,1.2-3.8,1.9-5.9,1.9c-1.8,0-3.5-0.5-4.9-1.5
		s-2.4-2.4-2.7-4.2h-1.3c-0.4,0.8-0.9,1.6-1.5,2.3c-0.6,0.7-1.3,1.3-2.1,1.8s-1.8,0.9-3,1.2c-1.1,0.3-2.5,0.5-4,0.5
		c-1.9,0-3.6-0.4-5.2-1.1c-1.6-0.7-3-1.8-4.1-3.1c-1.2-1.3-2.1-2.9-2.8-4.7c-0.7-1.8-1-3.7-1-5.8c0-3.2,0.4-6.2,1.3-9
		c0.9-2.8,2.1-5.2,3.8-7.3c1.6-2.1,3.6-3.7,6-4.9c2.4-1.2,5.1-1.8,8-1.8c2.6,0,4.7,0.5,6.3,1.6c1.5,1.1,2.6,2.5,3.1,4.2h1.3l1-4.8
		h9.1L433.6,47.4z M416.2,48.3c1.7,0,3.3-0.3,4.6-1c1.4-0.7,2.5-1.6,3.4-2.8s1.6-2.5,2-4.1c0.5-1.6,0.7-3.2,0.7-4.9
		c0-2.3-0.6-4.1-2-5.5c-1.3-1.4-3-2.1-5.2-2.1c-1.7,0-3.3,0.4-4.6,1c-1.4,0.7-2.5,1.6-3.4,2.8c-0.9,1.2-1.6,2.5-2.1,4.1
		S409,39,409,40.7c0,2,0.6,3.8,1.8,5.3C411.9,47.6,413.8,48.3,416.2,48.3z"/>
	<path class="st1" d="M483.4,33.7c0,3.4-0.5,6.5-1.4,9.3c-1,2.9-2.4,5.3-4.2,7.4s-4.2,3.7-7,4.9c-2.8,1.2-6.1,1.8-9.8,1.8
		c-2.1,0-4.1-0.3-6-0.9c-1.9-0.6-3.5-1.5-4.9-2.8c-1.4-1.2-2.5-2.7-3.3-4.5c-0.8-1.8-1.2-3.8-1.2-6c0-3.7,0.6-7,1.7-9.9
		c1.1-2.9,2.7-5.4,4.7-7.4s4.4-3.5,7.1-4.6c2.7-1.1,5.6-1.6,8.8-1.6c2.3,0,4.4,0.4,6.3,1c1.9,0.7,3.6,1.7,4.9,2.9s2.4,2.8,3.2,4.5
		C483,29.5,483.4,31.5,483.4,33.7z M462.3,48.5c1.7,0,3.3-0.4,4.8-1.2c1.5-0.7,2.7-1.7,3.8-2.8c1-1.2,1.8-2.6,2.4-4.1
		c0.6-1.6,0.9-3.3,0.9-5c0-2.5-0.7-4.4-2-5.7c-1.4-1.3-3.1-1.9-5.4-1.9c-1.7,0-3.3,0.4-4.8,1.1c-1.4,0.7-2.7,1.7-3.8,2.9
		c-1.1,1.2-1.9,2.6-2.5,4.2c-0.6,1.6-0.9,3.2-0.9,5c0,2.5,0.7,4.3,2,5.6C458.3,47.9,460.1,48.5,462.3,48.5z"/>
</g>
</svg>
